 <svg
              version="1.1"
              xmlns="http://www.w3.org/2000/svg"
              viewBox="0 0 150.64743625912524 83.07112575373549"
              width="150.64743625912524"
              height="83.07112575373549"
            >
              <defs></defs>
              <rect
                x="0"
                y="0"
                width="150.64743625912524"
                height="83.07112575373549"
                fill="transparent"
              ></rect>
              <g stroke-linecap="round">
                <g transform="translate(10 42.66185906478131) rotate(0 53.49775852979337 0.5631373530051178)">
                  <path
                    d="M0 0 C17.83 0.19, 89.16 0.94, 107 1.13 M0 0 C17.83 0.19, 89.16 0.94, 107 1.13"
                    stroke="white"
                    stroke-width="4"
                    fill="none"
                  ></path>
                </g>
                <g transform="translate(10 42.66185906478131) rotate(0 53.49775852979337 0.5631373530051178)">
                  <path
                    d="M83.41 9.43 C90.4 6.97, 97.38 4.51, 107 1.13 M83.41 9.43 C91.89 6.44, 100.37 3.46, 107 1.13"
                    stroke="white"
                    stroke-width="4"
                    fill="none"
                  ></path>
                </g>
                <g transform="translate(10 42.66185906478131) rotate(0 53.49775852979337 0.5631373530051178)">
                  <path
                    d="M83.59 -7.67 C90.52 -5.07, 97.45 -2.46, 107 1.13 M83.59 -7.67 C92.01 -4.51, 100.42 -1.35, 107 1.13"
                    stroke="white"
                    stroke-width="4"
                    fill="none"
                  ></path>
                </g>
              </g>
              <mask></mask>
              <g
                stroke-linecap="round"
                transform="translate(74.19755083306882 10.000000000000057) rotate(0 33.22494271302821 31.535562876867715)"
              >
                <path
                  d="M66.45 31.54 C66.45 33.18, 66.31 34.84, 66.04 36.47 C65.77 38.09, 65.36 39.72, 64.82 41.28 C64.29 42.84, 63.62 44.39, 62.83 45.85 C62.04 47.32, 61.12 48.74, 60.1 50.07 C59.09 51.4, 57.94 52.67, 56.72 53.83 C55.49 55, 54.16 56.08, 52.75 57.05 C51.35 58.01, 49.85 58.89, 48.31 59.63 C46.77 60.38, 45.14 61.02, 43.49 61.53 C41.84 62.04, 40.13 62.43, 38.42 62.68 C36.71 62.94, 34.96 63.07, 33.22 63.07 C31.49 63.07, 29.74 62.94, 28.03 62.68 C26.32 62.43, 24.61 62.04, 22.96 61.53 C21.31 61.02, 19.68 60.38, 18.14 59.63 C16.6 58.89, 15.1 58.01, 13.7 57.05 C12.29 56.08, 10.96 55, 9.73 53.83 C8.51 52.67, 7.36 51.4, 6.35 50.07 C5.33 48.74, 4.41 47.32, 3.62 45.85 C2.83 44.39, 2.16 42.84, 1.63 41.28 C1.09 39.72, 0.68 38.09, 0.41 36.47 C0.14 34.84, 0 33.18, 0 31.54 C0 29.89, 0.14 28.23, 0.41 26.6 C0.68 24.98, 1.09 23.35, 1.63 21.79 C2.16 20.23, 2.83 18.68, 3.62 17.22 C4.41 15.75, 5.33 14.33, 6.35 13 C7.36 11.67, 8.51 10.4, 9.73 9.24 C10.96 8.07, 12.29 6.99, 13.7 6.02 C15.1 5.06, 16.6 4.18, 18.14 3.44 C19.68 2.69, 21.31 2.05, 22.96 1.54 C24.61 1.04, 26.32 0.65, 28.03 0.39 C29.74 0.13, 31.49 0, 33.22 0 C34.96 0, 36.71 0.13, 38.42 0.39 C40.13 0.65, 41.84 1.04, 43.49 1.54 C45.14 2.05, 46.77 2.69, 48.31 3.44 C49.85 4.18, 51.35 5.06, 52.75 6.02 C54.16 6.99, 55.49 8.07, 56.72 9.24 C57.94 10.4, 59.09 11.67, 60.1 13 C61.12 14.33, 62.04 15.75, 62.83 17.22 C63.62 18.68, 64.29 20.23, 64.82 21.79 C65.36 23.35, 65.77 24.98, 66.04 26.6 C66.31 28.23, 66.38 30.71, 66.45 31.54 C66.52 32.36, 66.52 30.71, 66.45 31.54"
                  stroke="white"
                  stroke-width="4"
                  fill="none"
                ></path>
              </g>
            </svg>