<?xml version="1.0" standalone="no"?>
<!DOCTYPE svg PUBLIC "-//W3C//DTD SVG 20010904//EN"
 "http://www.w3.org/TR/2001/REC-SVG-20010904/DTD/svg10.dtd">
<svg version="1.0" xmlns="http://www.w3.org/2000/svg"
 width="154.000000pt" height="140.000000pt" viewBox="0 0 154.000000 140.000000"
 preserveAspectRatio="xMidYMid meet">
<metadata>
</metadata>
<g transform="translate(0.000000,140.000000) scale(0.100000,-0.100000)"
fill="white" stroke="none">
<path d="M743 1333 c-13 -2 -23 -7 -23 -11 0 -4 -19 -8 -42 -9 -23 -2 -45 -8
-50 -15 -6 -10 -10 -10 -18 2 -8 13 -10 12 -10 -2 0 -12 -8 -18 -24 -18 -14 0
-28 -4 -31 -10 -10 -16 -28 -11 -21 6 3 8 2 12 -4 9 -6 -3 -10 -13 -10 -22 0
-9 -6 -13 -14 -10 -9 4 -17 -2 -21 -14 -4 -10 -14 -19 -23 -19 -10 0 -28 -13
-42 -29 -13 -17 -27 -28 -32 -25 -4 3 -11 -2 -14 -10 -3 -9 -10 -13 -15 -10
-5 3 -6 -3 -2 -12 5 -13 3 -16 -10 -11 -12 5 -17 1 -17 -13 0 -10 -6 -23 -13
-27 -8 -4 -22 -23 -32 -40 -11 -18 -24 -33 -30 -33 -5 0 -11 -14 -11 -32 -1
-20 -10 -38 -24 -50 -12 -10 -18 -18 -12 -18 6 0 8 -9 5 -20 -3 -11 -10 -20
-17 -20 -7 0 -6 -4 2 -9 11 -7 11 -10 0 -22 -7 -8 -13 -34 -13 -57 0 -24 -2
-45 -5 -47 -5 -3 -4 -82 0 -95 1 -3 1 -18 1 -35 -2 -23 0 -27 8 -15 13 19 14
1 2 -19 -7 -10 -4 -20 7 -30 9 -9 18 -27 19 -41 4 -58 8 -70 20 -70 7 0 13 -9
13 -20 0 -12 7 -20 18 -20 14 0 15 -2 2 -10 -12 -8 -12 -10 2 -15 9 -4 22 -20
28 -36 7 -16 16 -29 21 -29 5 0 9 -7 9 -15 0 -8 6 -15 13 -15 18 0 67 -56 68
-77 0 -17 1 -17 8 0 6 16 10 15 36 -12 17 -17 38 -31 48 -31 9 0 17 -4 17 -10
0 -5 3 -9 8 -9 13 3 72 -25 72 -34 0 -4 16 -5 36 -1 34 6 36 5 29 -16 -6 -20
-5 -21 14 -10 12 6 26 8 32 4 17 -10 149 -13 143 -3 -7 12 3 11 27 -1 11 -6
19 -7 19 -1 0 8 41 20 87 24 11 1 19 6 15 11 -3 5 2 7 11 3 9 -3 23 0 31 8 7
8 16 11 20 8 3 -3 12 -1 20 6 8 6 18 11 22 10 22 -4 34 2 34 16 0 8 7 15 16
15 9 0 12 5 8 12 -4 6 -3 8 4 4 6 -3 17 1 25 9 9 8 18 15 21 15 11 0 44 38 39
44 -3 3 3 13 13 23 16 16 17 16 11 1 -3 -10 -2 -20 3 -23 6 -4 10 8 10 25 0
18 6 33 15 36 8 4 13 10 10 15 -3 4 6 16 20 25 13 9 23 20 20 24 -8 13 6 40
18 33 6 -3 7 -1 3 6 -4 6 0 18 8 27 9 8 16 24 16 34 0 10 5 22 10 25 6 3 10
17 10 30 0 13 4 26 10 30 5 3 7 12 3 20 -3 9 1 15 11 15 10 0 16 8 15 23 -1
16 -2 18 -6 5 -2 -10 -9 -18 -14 -18 -13 0 -11 24 3 38 7 7 8 12 3 12 -12 0
-13 60 -2 77 4 6 1 14 -5 17 -10 5 -10 7 0 12 10 4 10 9 2 20 -7 7 -14 32 -16
56 -2 23 -9 45 -15 49 -6 4 -8 12 -5 18 4 6 2 11 -4 11 -7 0 -9 7 -6 16 4 10
2 13 -6 8 -8 -5 -9 -2 -5 9 3 10 3 17 -1 17 -4 0 -12 11 -18 25 -9 18 -9 25 0
29 7 3 6 5 -2 5 -13 1 -42 25 -42 35 0 3 -16 22 -35 43 -19 21 -33 44 -30 51
3 7 1 11 -4 7 -14 -8 -41 5 -41 21 0 8 -4 15 -10 15 -5 1 -16 2 -22 3 -8 1
-12 12 -10 26 1 18 -1 21 -7 11 -10 -16 -55 -5 -45 11 5 7 0 9 -14 6 -12 -4
-25 -2 -28 4 -8 13 -53 31 -87 35 -16 1 -34 9 -42 17 -8 7 -26 11 -42 9 -15
-2 -37 -4 -48 -2 -11 1 -32 2 -47 2 -15 0 -25 4 -22 8 3 5 2 8 -3 8 -4 -1 -18
-4 -30 -6z m250 -71 c176 -64 310 -201 374 -384 35 -98 36 -249 4 -351 -45
-139 -127 -248 -247 -327 -105 -69 -194 -95 -324 -94 -58 0 -125 6 -150 13
-220 62 -389 242 -434 463 -20 95 -20 143 -1 233 47 223 212 397 435 460 79
22 265 15 343 -13z"/>
<path d="M704 1195 c1 -30 -5 -41 -26 -58 -24 -18 -30 -18 -57 -7 -18 7 -34
22 -37 36 l-6 23 -57 -35 c-166 -106 -252 -260 -254 -454 -1 -256 169 -468
420 -524 40 -9 89 -16 110 -16 43 0 165 24 205 41 26 11 26 11 7 30 -21 21
-24 41 -9 69 26 49 94 48 114 -2 l13 -29 59 63 c100 108 145 220 147 362 1
120 -36 229 -112 334 l-31 42 -29 -21 c-31 -22 -58 -20 -86 7 -17 17 -20 70
-5 79 21 13 8 24 -67 56 -68 28 -92 33 -189 37 l-111 4 1 -37z m71 -5 c3 -5
11 -10 16 -10 6 0 8 4 4 9 -3 5 8 9 25 9 24 -1 30 -5 25 -17 -4 -14 -3 -14 8
1 12 15 18 15 78 -4 74 -24 92 -36 85 -55 -3 -8 -1 -11 4 -8 6 3 10 -1 10 -10
0 -9 -4 -13 -10 -10 -25 16 -6 -16 29 -48 30 -27 36 -38 27 -47 -9 -10 -6 -10
10 -2 15 8 24 8 32 0 9 -9 12 -9 12 1 0 7 4 9 10 6 5 -3 19 -1 31 6 19 10 21
9 16 -4 -4 -11 -1 -14 7 -11 18 7 49 -44 49 -78 0 -17 6 -28 14 -28 7 0 13 -8
13 -17 0 -10 7 -30 14 -45 9 -18 11 -28 4 -28 -7 0 -7 -4 -1 -12 22 -28 22
-47 2 -45 -13 1 -19 7 -16 17 3 13 -5 16 -44 16 -32 0 -49 -4 -49 -12 0 -7 -4
-14 -9 -16 -10 -3 -14 -21 -12 -60 1 -20 6 -28 20 -28 10 0 24 -7 31 -15 17
-20 29 -19 49 6 16 20 18 20 34 5 14 -14 14 -20 2 -50 -8 -18 -11 -37 -7 -42
4 -5 -2 -2 -12 6 -18 14 -19 14 -7 -7 12 -23 1 -57 -24 -75 -5 -4 -6 -10 -2
-14 3 -4 -2 -14 -12 -23 -10 -9 -21 -26 -25 -38 -4 -13 -11 -23 -16 -23 -4 0
-10 -10 -14 -22 -5 -19 -8 -21 -16 -8 -5 8 -10 10 -10 4 0 -17 -28 -25 -48
-15 -37 18 -82 29 -82 20 0 -6 -12 -21 -27 -35 -21 -20 -28 -36 -29 -67 -1
-40 -23 -67 -25 -30 0 15 -2 14 -9 -5 -8 -19 -22 -28 -33 -19 -2 1 -12 -4 -21
-12 -15 -12 -19 -12 -26 -1 -10 16 -2 42 17 53 11 7 10 13 -2 36 -8 16 -11 32
-7 35 3 4 -1 4 -11 0 -9 -3 -17 -2 -17 4 0 5 -16 10 -35 10 -42 0 -71 -33 -60
-69 5 -13 2 -25 -6 -31 -11 -8 -10 -9 4 -4 19 6 20 5 11 -17 -4 -12 -12 -13
-37 -6 -40 11 -40 11 -31 -3 6 -9 3 -9 -9 0 -9 8 -21 11 -27 7 -5 -3 -10 -1
-10 4 0 6 -7 11 -15 11 -8 0 -15 5 -15 11 0 6 -7 9 -15 5 -9 -3 -15 0 -15 10
0 11 -6 14 -16 10 -9 -4 -26 5 -43 22 -29 28 -35 32 -51 32 -5 0 -7 7 -4 15 5
11 2 13 -10 9 -12 -4 -16 0 -16 15 0 13 -6 21 -16 21 -10 0 -14 6 -10 15 3 10
-1 15 -12 15 -9 0 -22 11 -29 25 -8 18 -8 25 0 25 6 0 1 7 -11 16 -13 9 -21
22 -18 30 3 7 0 19 -7 26 -17 19 -19 38 -5 38 9 0 9 3 1 11 -6 6 -9 18 -6 27
4 10 2 13 -5 8 -7 -4 -12 -2 -12 3 0 6 6 11 13 11 8 0 8 3 -2 9 -11 7 -15 30
-15 80 -1 39 1 67 2 61 8 -22 24 -8 19 17 -3 15 3 39 14 59 11 21 14 34 7 36
-6 2 -4 10 6 20 9 9 16 21 16 26 0 5 6 15 14 22 8 6 12 18 9 26 -3 8 0 14 6
14 6 0 11 -6 11 -12 0 -7 7 -2 16 10 8 12 12 27 8 34 -4 6 -3 9 2 5 5 -3 18 1
29 9 13 10 15 14 4 14 -10 1 -9 3 4 11 9 5 29 21 44 35 17 16 29 21 31 14 3
-9 6 -9 12 0 6 9 14 8 34 -5 21 -14 24 -20 14 -27 -9 -5 -6 -7 9 -5 11 2 28 9
36 15 12 10 16 10 20 0 4 -10 8 -10 16 2 6 8 11 11 11 6 0 -5 8 0 18 11 9 11
23 18 31 15 9 -3 11 0 6 7 -9 15 2 61 15 61 5 0 12 -4 15 -10z m485 -460 c8
-14 8 -26 0 -40 -23 -42 -86 -7 -69 38 11 28 54 30 69 2z m-430 -435 c15 -18
10 -45 -12 -59 -35 -22 -74 27 -48 59 16 19 44 19 60 0z"/>
<path d="M493 1031 c-24 -4 -46 -10 -49 -14 -15 -14 -10 -50 9 -72 19 -20 22
-21 49 -8 28 14 37 37 35 81 -1 12 -1 21 -2 21 0 -1 -19 -5 -42 -8z m21 -38
c4 -9 0 -23 -9 -32 -13 -14 -17 -14 -31 1 -9 9 -14 24 -11 32 8 21 43 20 51
-1z"/>
<path d="M838 1022 c-25 -2 -38 -8 -38 -17 0 -9 -6 -12 -15 -9 -14 6 -20 -7
-15 -31 1 -5 3 -16 4 -23 1 -7 10 -21 18 -32 9 -10 14 -21 11 -23 -3 -3 15 -4
39 -2 28 2 43 8 43 16 0 8 4 17 9 21 16 11 15 54 -2 79 -14 19 -24 23 -54 21z
m26 -38 c22 -21 20 -40 -6 -58 -15 -11 -26 -12 -40 -5 -23 12 -24 55 0 68 23
14 28 14 46 -5z"/>
<path d="M837 846 c-9 -10 -17 -14 -17 -10 0 4 -6 0 -13 -11 -8 -10 -19 -15
-25 -11 -8 4 -11 0 -10 -11 3 -36 -2 -52 -19 -56 -17 -4 -17 -5 0 -6 9 0 17
-9 17 -19 0 -9 9 -23 20 -30 12 -7 18 -18 14 -24 -5 -8 -2 -9 9 -5 10 3 17 2
17 -3 0 -6 16 -10 35 -10 19 0 35 4 35 10 0 5 6 7 13 4 9 -3 19 10 30 36 10
25 22 40 33 40 14 0 13 3 -6 20 -13 11 -19 20 -14 20 5 0 1 7 -10 15 -10 7
-15 18 -11 24 4 7 0 8 -11 4 -12 -4 -15 -3 -10 5 5 8 -2 12 -23 12 -16 0 -31
5 -33 11 -3 8 -10 6 -21 -5z m76 -54 c26 -23 22 -67 -9 -91 -15 -12 -32 -21
-39 -21 -7 0 -24 9 -39 21 -35 28 -35 70 1 98 28 23 54 21 86 -7z"/>
<path d="M460 697 c-27 -22 -50 -46 -50 -54 0 -7 -5 -13 -10 -13 -7 0 -7 -6 0
-19 5 -11 7 -27 4 -36 -4 -9 -1 -20 6 -25 6 -4 13 -19 13 -33 1 -14 5 -23 9
-21 4 2 9 0 13 -6 4 -6 10 -8 14 -5 5 2 27 -9 50 -25 30 -22 41 -26 41 -15 0
15 11 19 39 16 7 -2 11 1 8 6 -3 5 8 16 24 25 20 12 29 13 30 5 1 -7 4 2 8 18
4 17 12 29 17 28 5 -1 10 7 10 18 0 10 -4 19 -8 19 -4 0 -8 16 -8 35 0 21 -8
43 -19 54 -11 11 -17 22 -13 25 3 3 -5 6 -17 6 -17 0 -21 4 -17 15 3 9 0 15
-9 15 -8 0 -15 -5 -15 -11 0 -8 -4 -8 -12 -2 -33 26 -58 21 -108 -20z m129
-12 c42 -21 65 -77 51 -120 -17 -51 -61 -79 -113 -72 -55 8 -87 43 -87 98 0
50 13 74 48 93 35 19 66 20 101 1z"/>
</g>
</svg>
